<svg width="1400" height="900" viewBox="0 0 1400 900" fill="none" xmlns="http://www.w3.org/2000/svg">
  <defs>
    <linearGradient id="bg" x1="0" y1="0" x2="1" y2="1">
      <stop offset="0%" stop-color="#f4f1eb" />
      <stop offset="100%" stop-color="#e6f4f1" />
    </linearGradient>
    <linearGradient id="accent" x1="0" y1="0" x2="1" y2="1">
      <stop offset="0%" stop-color="#ff6b4a" />
      <stop offset="100%" stop-color="#2f6f7f" />
    </linearGradient>
    <filter id="shadow" x="-20%" y="-20%" width="140%" height="140%">
      <feDropShadow dx="0" dy="24" stdDeviation="24" flood-color="#1f2933" flood-opacity="0.18" />
    </filter>
  </defs>

  <rect width="1400" height="900" fill="url(#bg)" />
  <circle cx="160" cy="120" r="180" fill="#fff4e6" />
  <circle cx="1180" cy="140" r="220" fill="#e0f7f4" />

  <text x="120" y="120" font-family="Sora, Arial" font-size="28" fill="#2f6f7f" letter-spacing="6">
    EVENTOS DOM • VALIDAÇÃO • UI PREMIUM
  </text>
  <text x="120" y="180" font-family="Sora, Arial" font-size="52" fill="#1f2933" font-weight="700">
    Form Handler DOM JS
  </text>
  <text x="120" y="230" font-family="Manrope, Arial" font-size="22" fill="#5f6c7b">
    Preview conceitual da interface do projeto.
  </text>

  <g filter="url(#shadow)">
    <rect x="120" y="280" width="1160" height="520" rx="28" fill="#ffffff" />
  </g>

  <rect x="160" y="320" width="520" height="440" rx="22" fill="#f9fafb" stroke="#f0f2f5" />
  <rect x="720" y="320" width="520" height="440" rx="22" fill="#f9fafb" stroke="#f0f2f5" />

  <text x="190" y="370" font-family="Sora, Arial" font-size="22" fill="#1f2933" font-weight="600">Novo cadastro</text>
  <text x="750" y="370" font-family="Sora, Arial" font-size="22" fill="#1f2933" font-weight="600">Usuários cadastrados</text>

  <g fill="#ffffff" stroke="#d0d7de">
    <rect x="190" y="410" width="460" height="48" rx="12" />
    <rect x="190" y="475" width="460" height="48" rx="12" />
    <rect x="190" y="540" width="460" height="48" rx="12" />
    <rect x="190" y="605" width="460" height="48" rx="12" />
    <rect x="190" y="670" width="460" height="48" rx="12" />
  </g>

  <rect x="190" y="735" width="160" height="46" rx="23" fill="url(#accent)" />
  <rect x="370" y="735" width="160" height="46" rx="23" fill="#ffe4da" stroke="#ff6b4a" />

  <rect x="750" y="410" width="460" height="110" rx="18" fill="#ffffff" stroke="#e7ecf0" />
  <rect x="750" y="540" width="460" height="110" rx="18" fill="#ffffff" stroke="#e7ecf0" />
  <rect x="750" y="670" width="460" height="80" rx="18" fill="#ffffff" stroke="#e7ecf0" />

  <circle cx="1240" cy="350" r="20" fill="#fff2ed" />
  <text x="1234" y="357" font-family="Sora, Arial" font-size="16" fill="#e05236" font-weight="700">3</text>
</svg>
